#!OML:ASF G:\JayActor3\Patient Classification 1\Patient 1\Session 6\male.ASF
:FULLY-SPECIFIED
:DEGREES
1961
root 4.66421 16.3439 -24.0376 174.362 -54.9555 -177.54
lowerback 10.5538 0.0214727 0.896496
upperback 12.9193 -1.18157 -0.781332
thorax 7.76407 -1.00653 -1.35778
lowerneck 14.7105 0.427304 4.0463
upperneck -0.672122 0.976743 -2.40348
head -2.77596 0.487141 -1.57634
rclavicle 3.04141e-014 4.77083e-015
rhumerus 16.702 33.7436 -63.2411
rradius 131.842
rwrist -7.57292
rhand -9.81549 -26.658
rfingers 7.12502
rthumb 16.1613 -56.0043
lclavicle 3.04141e-014 4.77083e-015
lhumerus 4.24709 -39.5164 75.4613
lradius 126.03
lwrist -2.27009
lhand -50.1699 8.62031
lfingers 7.12502
lthumb -22.7521 37.2987
rfemur -16.6895 10.5787 19.029
rtibia 36.5044
rfoot -17.06 -15.23
rtoes -2.3564
lfemur -9.13805 7.11623 -16.5488
ltibia 26.2419
lfoot -12.7563 7.79342
ltoes -1.76145
1962
root 4.66609 16.3421 -24.0374 174.37 -54.9737 -177.6
lowerback 10.5571 0.0138856 0.914223
upperback 12.9783 -1.19899 -0.830451
thorax 7.82794 -1.01444 -1.42119
lowerneck 14.7257 0.404707 4.03755
upperneck -0.70567 0.948216 -2.37321
head -2.79139 0.471998 -1.56338
rclavicle -3.83654e-014 5.725e-014
rhumerus 17.0531 33.7088 -63.1831
rradius 131.99
rwrist -7.14608
rhand -10.0746 -26.6335
rfingers 7.12502
rthumb 15.9118 -55.9998
lclavicle -3.83654e-014 5.725e-014
lhumerus 4.75502 -39.3686 75.1138
lradius 126.211
lwrist -2.5713
lhand -50.2462 8.61164
lfingers 7.12502
lthumb -22.8254 37.281
rfemur -16.6765 10.5933 19.0019
rtibia 36.557
rfoot -17.0795 -15.2612
rtoes -2.38385
lfemur -9.10466 7.14981 -16.5771
ltibia 26.244
lfoot -12.7443 7.74732
ltoes -1.77045
1963
root 4.66784 16.341 -24.0373 174.404 -54.9991 -177.663
lowerback 10.5778 -0.00591093 0.904596
upperback 13.0143 -1.23111 -0.867302
thorax 7.85576 -1.03178 -1.4546
lowerneck 14.7874 0.396244 3.99261
upperneck -0.954205 0.940504 -2.32452
head -2.88936 0.468094 -1.5427
rclavicle -3.1408e-014 9.14409e-015
rhumerus 17.2737 33.7609 -63.1968
rradius 132.188
rwrist -6.80659
rhand -10.2397 -26.5514
rfingers 7.12502
rthumb 15.7528 -55.9303
lclavicle -3.1408e-014 9.14409e-015
lhumerus 5.03815 -39.273 74.9276
lradius 126.43
lwrist -2.89246
lhand -50.318 8.59511
lfingers 7.12502
lthumb -22.8943 37.256
rfemur -16.6853 10.6049 18.9672
rtibia 36.6044
rfoot -17.0999 -15.2937
rtoes -2.40334
lfemur -9.09428 7.18036 -16.612
ltibia 26.2376
lfoot -12.7273 7.70039
ltoes -1.77133
1964
root 4.6695 16.3407 -24.0375 174.46 -55.0289 -177.717
lowerback 10.5943 -0.0296913 0.878312
upperback 13.0393 -1.268 -0.8901
thorax 7.87376 -1.05298 -1.46333
lowerneck 14.8978 0.39401 3.92607
upperneck -1.44226 0.946207 -2.25685
head -3.08005 0.471562 -1.51661
rclavicle 3.85642e-014 -1.74931e-014
rhumerus 17.3726 33.8773 -63.2696
rradius 132.422
rwrist -6.53776
rhand -10.3579 -26.4398
rfingers 7.12502
rthumb 15.639 -55.8276
lclavicle 3.85642e-014 -1.74931e-014
lhumerus 5.14345 -39.2341 74.8775
lradius 126.672
lwrist -3.20978
lhand -50.3724 8.5438
lfingers 7.12502
lthumb -22.9465 37.1982
rfemur -16.7194 10.6153 18.9329
rtibia 36.6429
rfoot -17.1187 -15.3293
rtoes -2.41622
lfemur -9.11228 7.20965 -16.6444
ltibia 26.2246
lfoot -12.7066 7.65237
ltoes -1.76653
1965
root 4.67077 16.3412 -24.0377 174.528 -55.0725 -177.761
lowerback 10.6167 -0.054635 0.846453
upperback 13.0553 -1.30558 -0.902658
thorax 7.87837 -1.07509 -1.45755
lowerneck 15.0646 0.39255 3.85563
upperneck -2.17355 0.960881 -2.16857
head -3.3684 0.479328 -1.48761
rclavicle -8.15017e-015 -2.50469e-014
rhumerus 17.3401 34.0408 -63.4025
rradius 132.685
rwrist -6.33743
rhand -10.4539 -26.3125
rfingers 7.12502
rthumb 15.5465 -55.7076
lclavicle -8.15017e-015 -2.50469e-014
lhumerus 5.09027 -39.2651 74.9503
lradius 126.923
lwrist -3.49992
lhand -50.4034 8.47138
lfingers 7.12502
lthumb -22.9763 37.1221
rfemur -16.7657 10.6161 18.8984
rtibia 36.6707
rfoot -17.1408 -15.3667
rtoes -2.41927
lfemur -9.15036 7.22766 -16.6766
ltibia 26.2058
lfoot -12.683 7.60572
ltoes -1.7701
